<svg width="80" height="80" viewBox="0 0 80 80" fill="none" xmlns="http://www.w3.org/2000/svg">
<path d="M71.3166 35.7962C71.1433 35.6602 69.5233 34.4535 66.106 34.4535C65.2034 34.4575 64.3034 34.5335 63.414 34.6815C62.7527 30.2096 59.1221 28.1083 58.9541 28.0109L58.0368 27.4883L57.4328 28.3469C56.6768 29.5016 56.0088 30.6936 55.6848 32.0309C55.0728 34.5842 55.4448 36.9815 56.7594 39.0308C55.1701 39.9042 52.4622 39.9815 51.9475 40.0002H10.0572C8.95592 40.0015 8.06259 40.8801 8.05593 41.9655C8.00659 45.6094 8.52659 49.3694 9.79724 52.7907C11.2492 56.548 13.4105 59.316 16.2212 61.0093C19.3705 62.9119 24.4878 63.9999 30.289 63.9999C32.909 64.0079 35.525 63.7746 38.101 63.3013C41.6823 62.6519 45.1289 61.4173 48.2969 59.648C50.9075 58.156 53.2568 56.2587 55.2555 54.028C58.5954 50.2974 60.5847 46.1441 62.0647 42.4521C62.2634 42.4521 62.462 42.4521 62.654 42.4521C66.3113 42.4521 68.5593 41.0081 69.7993 39.7988C70.6233 39.0268 71.2673 38.0868 71.6846 37.0455L71.9473 36.2882L71.3166 35.7962Z" fill="#081B4B"/>
<path d="M18.6145 38.6666H14.6146C13.8786 38.6666 13.2812 38.0693 13.2812 37.3333V33.3333C13.2812 32.5973 13.8786 32 14.6146 32H18.6145C19.3505 32 19.9479 32.5973 19.9479 33.3333V37.3333C19.9479 38.0693 19.3505 38.6666 18.6145 38.6666Z" fill="#081B4B"/>
<path d="M26.6145 38.6666H22.6146C21.8786 38.6666 21.2812 38.0693 21.2812 37.3333V33.3333C21.2812 32.5973 21.8786 32 22.6146 32H26.6145C27.3505 32 27.9479 32.5973 27.9479 33.3333V37.3333C27.9479 38.0693 27.3505 38.6666 26.6145 38.6666Z" fill="#081B4B"/>
<path d="M34.6143 38.6666H30.6143C29.8783 38.6666 29.281 38.0693 29.281 37.3333V33.3333C29.281 32.5973 29.8783 32 30.6143 32H34.6143C35.3503 32 35.9476 32.5973 35.9476 33.3333V37.3333C35.9476 38.0693 35.3503 38.6666 34.6143 38.6666Z" fill="#081B4B"/>
<path d="M42.6143 38.6666H38.6143C37.8783 38.6666 37.281 38.0693 37.281 37.3333V33.3333C37.281 32.5973 37.8783 32 38.6143 32H42.6143C43.3503 32 43.9476 32.5973 43.9476 33.3333V37.3333C43.9476 38.0693 43.3503 38.6666 42.6143 38.6666Z" fill="#081B4B"/>
<path d="M26.6145 30.6666H22.6146C21.8786 30.6666 21.2812 30.0693 21.2812 29.3333V25.3333C21.2812 24.5973 21.8786 24 22.6146 24H26.6145C27.3505 24 27.9479 24.5973 27.9479 25.3333V29.3333C27.9479 30.0693 27.3505 30.6666 26.6145 30.6666Z" fill="#081B4B"/>
<path d="M34.6143 30.6666H30.6143C29.8783 30.6666 29.281 30.0693 29.281 29.3333V25.3333C29.281 24.5973 29.8783 24 30.6143 24H34.6143C35.3503 24 35.9476 24.5973 35.9476 25.3333V29.3333C35.9476 30.0693 35.3503 30.6666 34.6143 30.6666Z" fill="#081B4B"/>
<path d="M42.6143 30.6666H38.6143C37.8783 30.6666 37.281 30.0693 37.281 29.3333V25.3333C37.281 24.5973 37.8783 24 38.6143 24H42.6143C43.3503 24 43.9476 24.5973 43.9476 25.3333V29.3333C43.9476 30.0693 43.3503 30.6666 42.6143 30.6666Z" fill="#081B4B"/>
<path d="M42.6143 22.6666H38.6143C37.8783 22.6666 37.281 22.0693 37.281 21.3333V17.3333C37.281 16.5973 37.8783 16 38.6143 16H42.6143C43.3503 16 43.9476 16.5973 43.9476 17.3333V21.3333C43.9476 22.0693 43.3503 22.6666 42.6143 22.6666Z" fill="#081B4B"/>
<path d="M50.6143 38.6666H46.6143C45.8783 38.6666 45.281 38.0693 45.281 37.3333V33.3333C45.281 32.5973 45.8783 32 46.6143 32H50.6143C51.3503 32 51.9476 32.5973 51.9476 33.3333V37.3333C51.9476 38.0693 51.3503 38.6666 50.6143 38.6666Z" fill="#081B4B"/>
</svg>
