<svg width="80" height="80" viewBox="0 0 80 80" fill="none" xmlns="http://www.w3.org/2000/svg">
<path fill-rule="evenodd" clip-rule="evenodd" d="M21.0576 34.9927C23.8762 34.9927 26.1145 37.2364 26.1145 39.8808C26.1145 42.6053 23.7933 44.7688 21.0576 44.7688C18.2389 44.7688 16.0006 42.5251 16.0006 39.8808C16.0006 37.1563 18.3218 34.9927 21.0576 34.9927ZM44.3497 20.4067C45.5932 20.4067 46.8367 20.4869 47.9974 20.7273C47.9974 20.9677 47.9974 21.1279 47.9974 21.3683C47.9974 25.1346 51.1476 28.1796 55.0439 28.1796C56.5361 28.1796 58.0284 27.6988 59.189 26.8975C61.9247 29.8624 63.5827 33.3081 63.9972 37.475L55.9558 37.7153C55.2926 32.1061 50.3186 28.0995 44.3497 28.0995C42.6917 28.0995 41.0337 28.42 39.6244 29.061L35.6451 22.41C38.2151 21.1279 41.1995 20.4067 44.3497 20.4067Z" fill="#081B4B"/>
<path fill-rule="evenodd" clip-rule="evenodd" d="M55.8761 54.2231C58.6947 54.2231 60.9331 56.4669 60.9331 59.1112C60.9331 61.8357 58.6118 63.9993 55.8761 63.9993C53.0575 63.9993 50.8192 61.7556 50.8192 59.1112C50.7363 56.4669 53.0575 54.2231 55.8761 54.2231ZM33.1596 55.1036C29.7607 52.7798 27.1078 49.4943 25.6985 45.5678C27.6052 44.3659 28.7659 42.2824 28.7659 39.8784C28.7659 37.4745 27.4394 35.3109 25.4498 34.1089C26.6933 30.0221 29.3462 26.4162 32.9109 24.0122L37.1388 30.5831C34.4031 32.6665 32.6622 35.8718 32.6622 39.4778C32.6622 43.0837 34.4031 46.2089 37.0559 48.2923L33.1596 55.1036Z" fill="#081B4B"/>
<path fill-rule="evenodd" clip-rule="evenodd" d="M63.9994 40.8404C63.6678 45.408 61.6782 49.4947 58.6108 52.6199C57.616 52.1391 56.5383 51.8186 55.3777 51.8186C51.6472 51.8186 48.5798 54.6232 48.3311 58.149C47.0876 58.3894 45.7612 58.5497 44.4348 58.5497C41.3675 58.5497 38.4659 57.8285 35.8131 56.6265L39.7923 49.8954C41.2017 50.4563 42.7768 50.7769 44.4348 50.7769C50.4865 50.7769 55.4606 46.3696 56.0409 40.6802L63.9994 40.8404ZM55.4582 16.0005C58.2768 16.0005 60.5151 18.2442 60.5151 20.8886C60.5151 23.6131 58.1939 25.7766 55.4582 25.7766C52.6396 25.7766 50.4012 23.5329 50.4012 20.8886C50.3183 18.2442 52.6396 16.0005 55.4582 16.0005Z" fill="#081B4B"/>
</svg>
