<svg width="80" height="80" viewBox="0 0 80 80" fill="none" xmlns="http://www.w3.org/2000/svg">
<path d="M19.4114 39.9996C19.4114 48.1488 24.1472 55.1913 31.0146 58.5286L21.1938 31.6209C20.0515 34.1813 19.4114 37.0149 19.4114 39.9996ZM53.8979 38.9607C53.8979 36.4163 52.984 34.6542 52.2001 33.2827C51.1565 31.5868 50.1783 30.1506 50.1783 28.4547C50.1783 26.5622 51.6136 24.8005 53.6355 24.8005C53.7267 24.8005 53.8133 24.8118 53.9022 24.8169C50.2394 21.4612 45.3593 19.4123 39.9994 19.4123C32.8069 19.4123 26.4789 23.1026 22.7977 28.6921C23.2807 28.7066 23.7359 28.7168 24.1226 28.7168C26.276 28.7168 29.6094 28.4555 29.6094 28.4555C30.7192 28.3901 30.8501 30.0202 29.7414 30.1514C29.7414 30.1514 28.6261 30.2826 27.385 30.3477L34.8824 52.6481L39.3879 39.1354L36.1802 30.3469C35.0716 30.2818 34.0213 30.1506 34.0213 30.1506C32.9119 30.0856 33.0419 28.3893 34.1514 28.4547C34.1514 28.4547 37.5514 28.716 39.5744 28.716C41.7274 28.716 45.0612 28.4547 45.0612 28.4547C46.1718 28.3893 46.3023 30.0194 45.1932 30.1506C45.1932 30.1506 44.0756 30.2818 42.8369 30.3469L50.277 52.4784L52.3305 45.6161C53.2206 42.7685 53.8979 40.7232 53.8979 38.9607ZM40.3606 41.8005L34.1835 59.7501C36.0278 60.2923 37.9784 60.5888 39.9994 60.5888C42.3969 60.5888 44.6961 60.1744 46.8362 59.4218C46.781 59.3337 46.7309 59.24 46.6897 59.1382L40.3606 41.8005ZM58.0646 30.122C58.1531 30.7778 58.2033 31.4818 58.2033 32.239C58.2033 34.3282 57.8131 36.6768 56.6378 39.6133L50.3491 57.7957C56.4698 54.2264 60.5867 47.5953 60.5867 40C60.5871 36.4206 59.6727 33.0547 58.0646 30.122ZM39.9994 16.001C26.7665 16.001 16 26.7667 16 39.9996C16 53.2341 26.7665 63.9994 39.9994 63.9994C53.232 63.9994 64 53.2341 64 39.9996C63.9996 26.7667 53.232 16.001 39.9994 16.001ZM39.9994 62.8994C27.3733 62.8994 17.1004 52.6265 17.1004 39.9996C17.1004 27.3735 27.3729 17.1014 39.9994 17.1014C52.6251 17.1014 62.8972 27.3735 62.8972 39.9996C62.8972 52.6265 52.6251 62.8994 39.9994 62.8994Z" fill="#081B4B"/>
</svg>
